<svg width="917" height="569" viewBox="0 0 917 569" fill="none" xmlns="http://www.w3.org/2000/svg">
<path d="M8 141.429C8 78.5297 8 47.0802 37.322 27.5403C66.6436 8 113.836 8 208.222 8H458.5H708.778C803.163 8 850.355 8 879.677 27.5403C909 47.0802 909 78.5297 909 141.429V241.5V341.571C909 404.47 909 435.919 879.677 455.459C850.355 475 803.163 475 708.778 475H458.5H208.222C113.836 475 66.6436 475 37.322 455.459C8 435.919 8 404.47 8 341.571V241.5V141.429Z" stroke="#323232" stroke-width="15" stroke-linejoin="round"/>
<path d="M291 561H624.333" stroke="#323232" stroke-width="15" stroke-linecap="round" stroke-linejoin="round"/>
<path d="M458 475V561" stroke="#323232" stroke-width="15" stroke-linecap="round"/>
</svg>
